<svg width="46" height="31" viewBox="0 0 46 31" fill="none" xmlns="http://www.w3.org/2000/svg">
<path d="M19.44 5.92L9.4 30H2.4L12.56 6.68H0.12V0.839999H19.44V5.92ZM21.4863 7.16V0.799999H32.5663V30H25.4463V7.16H21.4863ZM41.1253 30.32C39.9253 30.32 38.9386 29.9733 38.1653 29.28C37.4186 28.56 37.0453 27.68 37.0453 26.64C37.0453 25.5733 37.4186 24.68 38.1653 23.96C38.9386 23.24 39.9253 22.88 41.1253 22.88C42.2986 22.88 43.2586 23.24 44.0053 23.96C44.7786 24.68 45.1653 25.5733 45.1653 26.64C45.1653 27.68 44.7786 28.56 44.0053 29.28C43.2586 29.9733 42.2986 30.32 41.1253 30.32Z" fill="white"/>
</svg>
