<svg width="34" height="46" viewBox="0 0 34 46" fill="none" xmlns="http://www.w3.org/2000/svg">
<path d="M20.44 5.92L10.4 30H3.4L13.56 6.68H1.12V0.839999H20.44V5.92ZM22.4863 7.16V0.799999H33.5663V30H26.4463V7.16H22.4863ZM2.981 45.099C2.519 45.099 2.10467 45.022 1.738 44.868C1.37133 44.7067 1.08167 44.4867 0.869 44.208C0.656333 43.922 0.539 43.5957 0.517 43.229H1.551C1.58033 43.5297 1.71967 43.7753 1.969 43.966C2.22567 44.1567 2.55933 44.252 2.97 44.252C3.35133 44.252 3.652 44.1677 3.872 43.999C4.092 43.8303 4.202 43.6177 4.202 43.361C4.202 43.097 4.08467 42.9027 3.85 42.778C3.61533 42.646 3.25233 42.5177 2.761 42.393C2.31367 42.2757 1.947 42.1583 1.661 42.041C1.38233 41.9163 1.14033 41.7367 0.935 41.502C0.737 41.26 0.638 40.9447 0.638 40.556C0.638 40.248 0.729667 39.9657 0.913 39.709C1.09633 39.4523 1.35667 39.2507 1.694 39.104C2.03133 38.95 2.41633 38.873 2.849 38.873C3.51633 38.873 4.05533 39.0417 4.466 39.379C4.87667 39.7163 5.09667 40.1783 5.126 40.765H4.125C4.103 40.4497 3.97467 40.1967 3.74 40.006C3.51267 39.8153 3.20467 39.72 2.816 39.72C2.45667 39.72 2.17067 39.797 1.958 39.951C1.74533 40.105 1.639 40.3067 1.639 40.556C1.639 40.754 1.70133 40.919 1.826 41.051C1.958 41.1757 2.11933 41.2783 2.31 41.359C2.508 41.4323 2.77933 41.5167 3.124 41.612C3.55667 41.7293 3.90867 41.8467 4.18 41.964C4.45133 42.074 4.68233 42.2427 4.873 42.47C5.071 42.6973 5.17367 42.9943 5.181 43.361C5.181 43.691 5.08933 43.988 4.906 44.252C4.72267 44.516 4.46233 44.725 4.125 44.879C3.795 45.0257 3.41367 45.099 2.981 45.099ZM7.81507 39.797V43.35C7.81507 43.6433 7.8774 43.8523 8.00207 43.977C8.12674 44.0943 8.34307 44.153 8.65107 44.153H9.38807V45H8.48607C7.92874 45 7.51074 44.8717 7.23207 44.615C6.9534 44.3583 6.81407 43.9367 6.81407 43.35V39.797H6.03307V38.972H6.81407V37.454H7.81507V38.972H9.38807V39.797H7.81507ZM15.9469 38.972V45H14.9459V44.109C14.7552 44.417 14.4876 44.659 14.1429 44.835C13.8056 45.0037 13.4316 45.088 13.0209 45.088C12.5516 45.088 12.1299 44.9927 11.7559 44.802C11.3819 44.604 11.0849 44.3107 10.8649 43.922C10.6522 43.5333 10.5459 43.0603 10.5459 42.503V38.972H11.5359V42.371C11.5359 42.965 11.6862 43.4233 11.9869 43.746C12.2876 44.0613 12.6982 44.219 13.2189 44.219C13.7542 44.219 14.1759 44.054 14.4839 43.724C14.7919 43.394 14.9459 42.9137 14.9459 42.283V38.972H15.9469ZM17.263 41.964C17.263 41.348 17.3877 40.809 17.637 40.347C17.8864 39.8777 18.2274 39.5147 18.66 39.258C19.1 39.0013 19.5914 38.873 20.134 38.873C20.6034 38.873 21.0397 38.983 21.443 39.203C21.8464 39.4157 22.1544 39.698 22.367 40.05V36.86H23.379V45H22.367V43.867C22.169 44.2263 21.8757 44.5233 21.487 44.758C21.0984 44.9853 20.6437 45.099 20.123 45.099C19.5877 45.099 19.1 44.967 18.66 44.703C18.2274 44.439 17.8864 44.0687 17.637 43.592C17.3877 43.1153 17.263 42.5727 17.263 41.964ZM22.367 41.975C22.367 41.5203 22.2754 41.1243 22.092 40.787C21.9087 40.4497 21.6594 40.193 21.344 40.017C21.036 39.8337 20.695 39.742 20.321 39.742C19.947 39.742 19.606 39.83 19.298 40.006C18.99 40.182 18.7444 40.4387 18.561 40.776C18.3777 41.1133 18.286 41.5093 18.286 41.964C18.286 42.426 18.3777 42.8293 18.561 43.174C18.7444 43.5113 18.99 43.7717 19.298 43.955C19.606 44.131 19.947 44.219 20.321 44.219C20.695 44.219 21.036 44.131 21.344 43.955C21.6594 43.7717 21.9087 43.5113 22.092 43.174C22.2754 42.8293 22.367 42.4297 22.367 41.975ZM25.5876 37.993C25.397 37.993 25.2356 37.927 25.1036 37.795C24.9716 37.663 24.9056 37.5017 24.9056 37.311C24.9056 37.1203 24.9716 36.959 25.1036 36.827C25.2356 36.695 25.397 36.629 25.5876 36.629C25.771 36.629 25.925 36.695 26.0496 36.827C26.1816 36.959 26.2476 37.1203 26.2476 37.311C26.2476 37.5017 26.1816 37.663 26.0496 37.795C25.925 37.927 25.771 37.993 25.5876 37.993ZM26.0716 38.972V45H25.0706V38.972H26.0716ZM30.4067 45.099C29.842 45.099 29.3287 44.9707 28.8667 44.714C28.412 44.4573 28.0527 44.0943 27.7887 43.625C27.532 43.1483 27.4037 42.5983 27.4037 41.975C27.4037 41.359 27.5357 40.8163 27.7997 40.347C28.071 39.8703 28.4377 39.5073 28.8997 39.258C29.3617 39.0013 29.8787 38.873 30.4507 38.873C31.0227 38.873 31.5397 39.0013 32.0017 39.258C32.4637 39.5073 32.8267 39.8667 33.0907 40.336C33.362 40.8053 33.4977 41.3517 33.4977 41.975C33.4977 42.5983 33.3583 43.1483 33.0797 43.625C32.8083 44.0943 32.438 44.4573 31.9687 44.714C31.4993 44.9707 30.9787 45.099 30.4067 45.099ZM30.4067 44.219C30.766 44.219 31.1033 44.1347 31.4187 43.966C31.734 43.7973 31.987 43.5443 32.1777 43.207C32.3757 42.8697 32.4747 42.459 32.4747 41.975C32.4747 41.491 32.3793 41.0803 32.1887 40.743C31.998 40.4057 31.7487 40.1563 31.4407 39.995C31.1327 39.8263 30.799 39.742 30.4397 39.742C30.073 39.742 29.7357 39.8263 29.4277 39.995C29.127 40.1563 28.885 40.4057 28.7017 40.743C28.5183 41.0803 28.4267 41.491 28.4267 41.975C28.4267 42.4663 28.5147 42.8807 28.6907 43.218C28.874 43.5553 29.116 43.8083 29.4167 43.977C29.7173 44.1383 30.0473 44.219 30.4067 44.219Z" fill="white"/>
</svg>
