<svg width="22" height="15" viewBox="0 0 22 15" fill="none" xmlns="http://www.w3.org/2000/svg">
<path d="M16.5055 3.43782e-07H7.70051C5.67858 3.43782e-07 3.75565 0.789643 2.28375 2.22429C0.810754 3.65893 0 5.53179 0 7.5C0 9.46929 0.810754 11.3421 2.28375 12.7757C3.75565 14.2104 5.67858 15 7.70051 15H16.5011V12.8571H7.70051C6.26712 12.8571 4.89533 12.2904 3.83926 11.2607C2.78208 10.2321 2.20015 8.89607 2.20015 7.5C2.20015 6.105 2.78208 4.76893 3.83926 3.73929C4.89533 2.70964 6.26712 2.14286 7.70051 2.14286H16.5011H16.5055C17.3746 2.14286 18.1985 2.47929 18.8256 3.09214C19.4537 3.70393 19.8002 4.50857 19.8013 5.35929C19.801 5.78005 19.7148 6.19655 19.5479 6.58463C19.3809 6.97271 19.1365 7.32464 18.8289 7.62C18.5244 7.92017 18.162 8.15875 17.7625 8.32204C17.363 8.48532 16.9343 8.57007 16.5011 8.57143H7.70051C7.5571 8.56973 7.41544 8.54047 7.28367 8.48531C7.1519 8.43015 7.03261 8.35018 6.93266 8.25C6.82919 8.15254 6.74656 8.03609 6.68954 7.90736C6.63252 7.77863 6.60224 7.64018 6.60044 7.5C6.60044 7.23 6.72145 6.95679 6.93156 6.75214C7.03135 6.6513 7.15071 6.57077 7.28271 6.51523C7.41471 6.45968 7.55673 6.43023 7.70051 6.42857H16.5011V4.28571H7.70051C6.83145 4.28571 6.0053 4.62321 5.37496 5.23821C4.74572 5.85107 4.40029 6.65464 4.40029 7.5C4.40029 8.34536 4.74572 9.15 5.37716 9.765C5.68078 10.0649 6.04245 10.3033 6.44125 10.4662C6.84004 10.6292 7.26805 10.7135 7.70051 10.7143H16.5022C17.224 10.7138 17.9387 10.5741 18.6048 10.3032C19.2709 10.0323 19.8753 9.63564 20.3833 9.13607C20.8956 8.64124 21.3023 8.05246 21.5798 7.40373C21.8573 6.755 22.0001 6.05916 22 5.35638C21.9999 4.65361 21.8569 3.95781 21.5792 3.30915C21.3015 2.6605 20.8947 2.07184 20.3822 1.57714C19.8754 1.07732 19.2718 0.680518 18.6063 0.409776C17.9408 0.139035 17.2267 -0.000252561 16.5055 3.43782e-07Z" fill="#001E2B"/>
</svg>
